<?xml version="1.0" encoding="utf-8"?>
<!-- Generator: Adobe Illustrator 25.1.0, SVG Export Plug-In . SVG Version: 6.00 Build 0)  -->
<svg version="1.1" id="Layer_1" xmlns="http://www.w3.org/2000/svg" xmlns:xlink="http://www.w3.org/1999/xlink" x="0px" y="0px"
	 viewBox="0 0 480.9 170.2" style="enable-background:new 0 0 480.9 170.2;" xml:space="preserve">
<style type="text/css">
	.st0{fill:#73DEFF;}
</style>
<g>
	<path class="st0" d="M4.8,163.8c5-30.5,9.9-61,14.9-91.6c10.5-0.3,21-0.8,31.5-1.6c10.9-0.8,19.2,0.8,25,5
		c5.8,4.3,8.6,10.7,8.6,19.3c0,5.9-0.9,11-2.7,15.5c-1.8,4.5-4.4,8.3-7.8,11.5c-3.4,3.1-7.6,5.6-12.4,7.4
		c-4.9,1.8-10.4,2.9-16.6,3.3c-2.7,0.2-5.4,0.3-8.1,0.5c-1.7,10-3.3,20.7-5,30.7L4.8,163.8z M45.2,110.2c3.8-0.3,6.8-1.2,8.9-2.7
		c2.1-1.5,3.2-3.8,3.2-6.7c0-2.8-0.9-4.6-2.6-5.5c-1.7-0.9-4.1-1.2-7.2-1c-1.4,0.1-2.8,0.2-4.2,0.3c-0.9,5.3-1.8,10.6-2.6,15.9
		C42.3,110.4,43.7,110.3,45.2,110.2z"/>
	<path class="st0" d="M129.1,152.3c-3.9-10.5-7.7-21-11.6-31.6c-1.1,0.2-2.2,0.3-3.3,0.5c-1.7,11.4-3.5,22.8-5.2,34.2
		c-8.9,1.3-17.7,2.5-26.6,3.5c5-31,9.9-62.1,14.9-93.3c11.6-1.6,23.1-3.3,34.7-5.3c4.6-0.8,8.8-0.9,12.5-0.5
		c3.7,0.5,6.9,1.5,9.5,3.2c2.6,1.7,4.6,3.9,6,6.8c1.4,2.9,2.1,6.3,2.1,10.4c0,7.6-1.6,14.1-5,19.6c-3.3,5.5-7.8,9.7-13.5,12.5
		c5.5,11.5,11,22.9,16.5,34.3C149.8,148.7,139.5,150.6,129.1,152.3z M123,100.9c3.7-0.6,6.5-1.7,8.6-3.4c2.1-1.7,3.1-4,3.1-6.9
		c0-2.7-0.9-4.3-2.6-5.1c-1.7-0.7-4-0.8-7-0.3c-1.7,0.3-3.4,0.6-5.1,0.8c-0.8,5.3-1.7,10.5-2.5,15.7
		C119.4,101.5,121.2,101.2,123,100.9z"/>
	<path class="st0" d="M207.5,139.6c-6.8,1.4-12.7,1.6-18,0.7c-5.2-1-9.6-2.9-13.1-5.9c-3.5-3-6.2-6.9-8.1-11.6
		c-1.8-4.7-2.7-10.1-2.7-16.2c0-7.6,1.2-14.9,3.7-22c2.5-7.1,5.9-13.5,10.4-19.3c4.5-5.8,9.8-10.7,16.2-14.9
		c6.3-4.1,13.3-7,21.1-8.7c6.8-1.4,12.9-1.7,18.1-0.8c5.2,0.9,9.6,2.8,13.1,5.8c3.5,2.9,6.2,6.8,8.1,11.5c1.8,4.7,2.7,10.1,2.7,16.2
		c0,7.6-1.2,14.9-3.6,22.1c-2.4,7.1-5.9,13.6-10.4,19.5c-4.5,5.9-9.9,10.9-16.2,15.1C222.4,135.1,215.3,138,207.5,139.6z
		 M230.2,82.5c0-2.3-0.3-4.4-1-6.3c-0.7-1.9-1.7-3.4-3-4.7c-1.3-1.2-2.9-2.1-4.9-2.5c-2-0.4-4.2-0.4-6.6,0.1c-3.1,0.7-5.9,2-8.4,3.9
		c-2.5,1.9-4.6,4.3-6.4,6.9c-1.7,2.7-3.1,5.6-4.1,8.8c-1,3.2-1.4,6.4-1.4,9.5c0,2.3,0.3,4.4,1,6.3c0.7,1.9,1.7,3.4,3,4.7
		c1.3,1.2,2.9,2.1,4.9,2.5c1.9,0.5,4.2,0.4,6.7-0.1c3.1-0.7,5.9-1.9,8.3-3.8c2.5-1.9,4.6-4.2,6.3-6.9c1.7-2.7,3.1-5.6,4.1-8.9
		C229.7,88.9,230.2,85.7,230.2,82.5z"/>
	<path class="st0" d="M286.1,120.7c-9.1,1.9-18.3,3.8-27.4,5.7c5-31.5,9.9-63,14.9-94.5c10.5-2.2,21-4.4,31.5-6.4
		c10.9-2.2,19.2-1.3,25,2.6c5.8,3.9,8.6,10.1,8.6,18.7c0,5.9-0.9,11.1-2.7,15.7c-1.8,4.6-4.4,8.6-7.8,12c-3.4,3.4-7.6,6.2-12.4,8.5
		c-4.8,2.3-10.4,4-16.6,5.3c-2.7,0.5-5.4,1.1-8.1,1.6C289.4,100.1,287.7,110.4,286.1,120.7z M299.1,65.8c3.8-0.8,6.8-2,8.9-3.8
		c2.1-1.8,3.2-4.2,3.2-7.1c0-2.8-0.9-4.5-2.6-5.2c-1.8-0.7-4.1-0.7-7.2-0.1c-1.4,0.3-2.8,0.6-4.2,0.8c-0.9,5.4-1.7,10.8-2.6,16.3
		C296.1,66.4,297.6,66.1,299.1,65.8z"/>
	<path class="st0" d="M336.2,111c5-31.3,9.9-62.7,14.9-94c20.3-3.4,40.6-6.3,60.9-8.3c-1.4,7.8-2.7,15.6-4.1,23.4
		c-11.6,1.2-23.3,2.7-34.9,4.4c-0.5,3.3-1,6.6-1.4,10c7.8-1.1,15.5-2.2,23.3-3.2c-1.3,8.6-2.5,17.1-3.8,25.7
		c-7.8,1-15.5,2.1-23.3,3.2c-0.5,3.6-1,7.2-1.6,10.8c12.8-2,25.6-3.7,38.4-5.1c-1.4,7.8-2.7,15.6-4.1,23.4
		C379.1,103.8,357.7,107.1,336.2,111z"/>
	<path class="st0" d="M409,100.4c5-31,9.9-61.9,14.9-92.8c9.3-0.8,18.5-1.4,27.8-1.8c-3.6,22.1-7.2,44.2-10.7,66.4
		c11.9-0.7,23.9-1.1,35.8-1.1c-1.4,8.5-2.8,17-4.2,25.6C451.4,96.8,430.2,98.2,409,100.4z"/>
</g>
</svg>
